<svg width="88" height="104" viewBox="0 0 88 104" fill="none" xmlns="http://www.w3.org/2000/svg">
<path d="M88 4V84C88 85.0609 87.5786 86.0783 86.8284 86.8284C86.0783 87.5786 85.0609 88 84 88H16C13.8783 88 11.8434 88.8429 10.3431 90.3431C8.84285 91.8434 8 93.8783 8 96H76C77.0609 96 78.0783 96.4214 78.8284 97.1716C79.5786 97.9217 80 98.9391 80 100C80 101.061 79.5786 102.078 78.8284 102.828C78.0783 103.579 77.0609 104 76 104H4C2.93913 104 1.92172 103.579 1.17157 102.828C0.421428 102.078 0 101.061 0 100V16C0 11.7565 1.68571 7.68687 4.68629 4.68629C7.68687 1.68571 11.7565 0 16 0H84C85.0609 0 86.0783 0.421427 86.8284 1.17157C87.5786 1.92172 88 2.93913 88 4Z" fill="white"/>
</svg>
