<svg width="94" height="94" viewBox="0 0 94 94" fill="none" xmlns="http://www.w3.org/2000/svg">
<path d="M93.8709 14.2007L89.7007 20.4794C92.2309 22.1662 93.8709 25.0245 93.8709 28.2575V44.6572L86.8424 47L79.6266 35.4734C79.0174 34.4894 77.4712 34.9111 77.4712 36.0825V52.8571C77.4712 57.449 75.6438 61.5723 72.7856 64.7117V93.8563H61.0715V70.4282H59.9001C58.9161 70.4282 57.9321 70.2876 56.995 70.147L35.0663 66.4922L30.9429 75.6761L35.488 93.8563H23.399L19.0883 76.5195C18.7603 75.2544 18.9008 73.8955 19.4163 72.771L23.5865 63.3997C21.4839 62.0228 19.7462 60.157 18.5222 57.9619C17.2982 55.7668 16.6242 53.3078 16.558 50.7954C16.3706 51.4983 16.2769 52.5291 16.4175 54.0285C16.558 56.0902 17.0734 59.1358 16.7454 62.5095C16.558 65.8831 15.0586 69.3505 13.0907 71.6464C11.029 73.9424 8.82673 75.5355 6.48392 76.7538L3.20398 73.4738C4.09425 71.2716 4.98452 69.3036 5.17194 67.4762C5.45308 65.7426 5.12509 64.3369 4.60967 63.0717L2.12629 57.777C1.1423 55.3873 -0.0759592 51.92 0.158322 47.8435C0.298891 43.8607 2.50114 38.6596 6.67135 35.8014C10.8884 32.9432 15.4335 32.5215 19.1351 33.318C21.4779 33.7866 23.8676 34.9111 25.9293 36.5043C27.663 35.7077 29.6778 35.286 31.7863 35.286H58.7287V32.9432C58.7287 22.5879 67.116 14.2007 77.4712 14.2007L93.8709 0.143799L89.1853 14.2007H93.8709Z" fill="white"/>
</svg>
