<svg width="124" height="98" viewBox="0 0 124 98" fill="none" xmlns="http://www.w3.org/2000/svg">
<path d="M122.296 14.3329C119.141 8.89786 110.796 3.80286 89.2164 9.47786C82.0138 4.50764 73.5888 1.60236 64.8536 1.07655C56.1184 0.550746 47.4058 2.42445 39.6591 6.49481C31.9123 10.5652 25.4265 16.6771 20.904 24.1689C16.3815 31.6607 13.9944 40.2469 14.0014 48.9979C14.0014 50.1979 14.0447 51.3879 14.1314 52.5679C-1.71863 68.4279 -1.44863 78.1979 1.72137 83.6629C4.70137 88.8029 10.6514 90.9979 18.3414 90.9979C23.2364 90.9979 28.8414 90.1079 34.8164 88.5429C42.0205 93.5061 50.4447 96.4047 59.1775 96.9252C67.9102 97.4457 76.6191 95.5681 84.3617 91.4958C92.1043 87.4234 98.5859 81.3112 103.105 73.8206C107.624 66.33 110.009 57.7461 110.001 48.9979C110.001 47.7929 109.956 46.6029 109.866 45.4179C117.021 38.2279 121.796 31.3129 123.366 25.4179C124.776 20.2079 123.561 16.4979 122.296 14.3329ZM62.0014 12.9979C70.1554 13.0089 78.0649 15.7835 84.4388 20.8689C90.8127 25.9542 95.2747 33.0499 97.0964 40.9979C90.0014 47.3629 80.5014 54.2929 68.9614 60.9279C58.0914 67.1729 47.1864 72.1079 37.4164 75.2529C32.1551 70.3171 28.4981 63.9144 26.9195 56.8751C25.341 49.8359 25.9137 42.4847 28.5635 35.7749C31.2132 29.065 35.8178 23.3061 41.7801 19.2447C47.7423 15.1834 54.7873 13.007 62.0014 12.9979ZM12.0964 77.6429C11.7914 77.1079 12.0114 73.5329 17.4314 66.7879C19.115 70.9903 21.386 74.9329 24.1764 78.4979C15.5614 79.8029 12.4264 78.2029 12.0964 77.6429ZM62.0014 84.9979C58.1683 84.9981 54.3599 84.3837 50.7214 83.1779C59.0523 79.7869 67.1412 75.8293 74.9314 71.3329C82.6924 66.9069 90.1385 61.9501 97.2164 56.4979C95.4882 64.5578 91.0507 71.7824 84.6431 76.9682C78.2355 82.154 70.2445 84.9879 62.0014 84.9979ZM111.786 22.3229C111.146 24.7129 109.381 27.7579 106.591 31.2229C104.908 27.0146 102.635 23.0668 99.8414 19.4979C107.756 18.3129 111.426 19.4979 111.916 20.3529C112.001 20.4979 112.106 21.1379 111.786 22.3229Z" fill="white"/>
</svg>
