<svg width="92" height="90" viewBox="0 0 92 90" fill="none" xmlns="http://www.w3.org/2000/svg">
<path d="M10.9979 90C6.74787 90 3.72787 88.105 1.93787 84.315C0.147868 80.525 0.584535 77.0033 3.24787 73.75L30.9979 40V10H25.9979C24.5812 10 23.3945 9.52 22.4379 8.56C21.4812 7.6 21.0012 6.41333 20.9979 5C20.9945 3.58667 21.4745 2.4 22.4379 1.44C23.4012 0.480001 24.5879 0 25.9979 0H65.9979C67.4145 0 68.6029 0.480001 69.5629 1.44C70.5229 2.4 71.0012 3.58667 70.9979 5C70.9945 6.41333 70.5145 7.60167 69.5579 8.565C68.6012 9.52833 67.4145 10.0067 65.9979 10H60.9979V40L88.7479 73.75C91.4145 77 91.8529 80.5217 90.0629 84.315C88.2729 88.1083 85.2512 90.0033 80.9979 90H10.9979Z" fill="white"/>
</svg>
