<svg width="36" height="36" viewBox="0 0 36 36" fill="none" xmlns="http://www.w3.org/2000/svg">
<g clip-path="url(#clip0_45_57)">
<path fill-rule="evenodd" clip-rule="evenodd" d="M15.75 3C13.7169 3.00017 11.7133 3.48655 9.9064 4.41854C8.09949 5.35054 6.54165 6.70113 5.36287 8.35763C4.18408 10.0141 3.41853 11.9285 3.13008 13.9411C2.84162 15.9536 3.03864 18.006 3.70468 19.9269C4.37072 21.8478 5.48648 23.5816 6.95887 24.9836C8.43126 26.3856 10.2176 27.4152 12.1688 27.9864C14.12 28.5576 16.1795 28.654 18.1755 28.2674C20.1716 27.8808 22.0462 27.0224 23.643 25.764L29.121 31.242C29.4039 31.5152 29.7828 31.6664 30.1761 31.663C30.5694 31.6596 30.9456 31.5018 31.2237 31.2237C31.5019 30.9456 31.6596 30.5694 31.663 30.1761C31.6664 29.7828 31.5153 29.4039 31.242 29.121L25.764 23.643C27.246 21.7629 28.1688 19.5036 28.4267 17.1236C28.6846 14.7436 28.2672 12.339 27.2224 10.1851C26.1775 8.03125 24.5473 6.21503 22.5185 4.94435C20.4896 3.67366 18.144 2.99984 15.75 3ZM6.00001 15.75C6.00001 13.1641 7.02724 10.6842 8.85572 8.85571C10.6842 7.02723 13.1642 6 15.75 6C18.3359 6 20.8158 7.02723 22.6443 8.85571C24.4728 10.6842 25.5 13.1641 25.5 15.75C25.5 18.3359 24.4728 20.8158 22.6443 22.6443C20.8158 24.4728 18.3359 25.5 15.75 25.5C13.1642 25.5 10.6842 24.4728 8.85572 22.6443C7.02724 20.8158 6.00001 18.3359 6.00001 15.75Z" fill="#F8F8F8"/>
</g>
<defs>
<clipPath id="clip0_45_57">
<rect width="36" height="36" fill="white"/>
</clipPath>
</defs>
</svg>
